<svg height="821pt" preserveAspectRatio="xMidYMid meet" viewBox="0 0 820 821" width="820pt" xmlns="http://www.w3.org/2000/svg"><g transform="matrix(.1 0 0 -.1 0 821)"><path d="m4778 7843c7-3 16-2 19 1 4 3-2 6-13 5-11 0-14-3-6-6z"/><path d="m2878 7683c6-2 18-2 25 0 6 3 1 5-13 5s-19-2-12-5z"/><path d="m6050 7366c0-2 7-6 15-10 8-3 15-1 15 4 0 6-7 10-15 10s-15-2-15-4z"/><path d="m6670 6895c7-8 17-15 22-15s3 7-6 15c-8 8-18 15-22 15-3 0-1-7 6-15z"/><path d="m6830 6740c6-11 15-20 20-20 6 0 2 9-7 20-10 11-19 20-21 20-1 0 2-9 8-20z"/><path d="m3088 6153c23-2 59-2 80 0 20 2 1 4-43 4s-61-2-37-4z"/><path d="m899 6043c-13-16-12-17 4-4s21 21 13 21c-2 0-10-8-17-17z"/><path d="m3310 5440c-9-6-10-10-3-10 6 0 15 5 18 10 8 12 4 12-15 0z"/><path d="m5681 4464c0-11 3-14 6-6 3 7 2 16-1 19-3 4-6-2-5-13z"/><path d="m5055 4290c3-5 8-10 11-10 2 0 4 5 4 10 0 6-5 10-11 10-5 0-7-4-4-10z"/><path d="m4831 4084c0-11 3-14 6-6 3 7 2 16-1 19-3 4-6-2-5-13z"/><path d="m4850 3455c0-8 2-15 4-15s6 7 10 15c3 8 1 15-4 15-6 0-10-7-10-15z"/><path d="m5385 2960c-3-5-2-10 4-10 5 0 13 5 16 10 3 6 2 10-4 10-5 0-13-4-16-10z"/><path d="m4810 2880c8-5 20-10 25-10 6 0 3 5-5 10s-19 10-25 10c-5 0-3-5 5-10z"/><path d="m671 2744c0-11 3-14 6-6 3 7 2 16-1 19-3 4-6-2-5-13z"/><path d="m2352 2555c0-16 2-22 5-12 2 9 2 23 0 30-3 6-5-1-5-18z"/><path d="m3141 2554c0-11 3-14 6-6 3 7 2 16-1 19-3 4-6-2-5-13z"/><path d="m1470 1536c0-2 8-10 18-17 15-13 16-12 3 4s-21 21-21 13z"/><path d="m4578 443c6-2 18-2 25 0 6 3 1 5-13 5s-19-2-12-5z"/></g></svg>
